<?xml version="1.0" encoding="utf-8"?>
<!-- Generator: Adobe Illustrator 23.1.1, SVG Export Plug-In . SVG Version: 6.00 Build 0)  -->
<svg version="1.1" id="Layer_1" xmlns="http://www.w3.org/2000/svg" xmlns:xlink="http://www.w3.org/1999/xlink" x="0px" y="0px"
	 viewBox="0 0 1280 500" style="enable-background:new 0 0 1280 500;" xml:space="preserve">
<style type="text/css">
	.st0{opacity:0.5;fill:none;stroke:url(#SVGID_1_);stroke-width:2;stroke-miterlimit:10;enable-background:new    ;}
	.st1{clip-path:url(#SVGID_3_);fill:#2B2828;}
	.st2{opacity:0.7;clip-path:url(#SVGID_5_);}
	.st3{fill:url(#SVGID_6_);}
	.st4{opacity:0.7;clip-path:url(#SVGID_8_);}
	.st5{fill:url(#SVGID_9_);}
	.st6{clip-path:url(#SVGID_11_);}
	.st7{fill:url(#SVGID_12_);}
	.st8{clip-path:url(#SVGID_14_);}
	.st9{fill:url(#SVGID_15_);}
	.st10{clip-path:url(#SVGID_17_);fill:none;stroke:#A52B31;stroke-width:1;stroke-miterlimit:10.0001;}
	.st11{clip-path:url(#SVGID_19_);fill:#FFFFFF;}
	.st12{clip-path:url(#SVGID_21_);fill:#A52B31;}
	.st13{clip-path:url(#SVGID_23_);fill:#A52B31;}
	.st14{clip-path:url(#SVGID_25_);fill:none;stroke:#A52B31;stroke-width:2;stroke-miterlimit:10;}
	.st15{clip-path:url(#SVGID_27_);fill:none;stroke:#FFFFFF;stroke-miterlimit:10;}
	.st16{clip-path:url(#SVGID_29_);fill:none;stroke:#A52B31;stroke-width:1;stroke-miterlimit:9.9999;}
	.st17{clip-path:url(#SVGID_31_);fill:none;stroke:url(#SVGID_32_);stroke-width:2;stroke-miterlimit:10;}
	
		.st18{opacity:0.5;clip-path:url(#SVGID_34_);fill:none;stroke:url(#SVGID_35_);stroke-width:2;stroke-miterlimit:10;enable-background:new    ;}
	.st19{fill:none;}
</style>
<g id="BACKGROUND">
</g>
<g id="OBJECTS">
	<g>
		<g>
			
				<linearGradient id="SVGID_1_" gradientUnits="userSpaceOnUse" x1="349.3878" y1="583.3929" x2="138.8322" y2="213.2414" gradientTransform="matrix(1 0 0 -1 0 502)">
				<stop  offset="0" style="stop-color:#000000;stop-opacity:0"/>
				<stop  offset="0.1486" style="stop-color:#272727;stop-opacity:0.1486"/>
				<stop  offset="0.3013" style="stop-color:#474747;stop-opacity:0.3013"/>
				<stop  offset="0.4597" style="stop-color:#606060;stop-opacity:0.4597"/>
				<stop  offset="0.6243" style="stop-color:#727272;stop-opacity:0.6243"/>
				<stop  offset="0.7989" style="stop-color:#7D7D7D;stop-opacity:0.7989"/>
				<stop  offset="1" style="stop-color:#808080"/>
			</linearGradient>
			<path class="st0" d="M-3.6,206.7c48.2,3.7,122.9,3.3,207-19.7C318.3,155.6,440.3,48.6,491.6-0.1"/>
		</g>
	</g>
	<g>
		<g>
			<defs>
				<rect id="SVGID_2_" x="-1.6" width="1282.8" height="501.8"/>
			</defs>
			<clipPath id="SVGID_3_">
				<use xlink:href="#SVGID_2_"  style="overflow:visible;"/>
			</clipPath>
			<rect x="-25.6" y="-298.6" class="st1" width="1322.7" height="812.6"/>
		</g>
		<g>
			<defs>
				<rect id="SVGID_4_" x="-1.6" width="1282.8" height="501.8"/>
			</defs>
			<clipPath id="SVGID_5_">
				<use xlink:href="#SVGID_4_"  style="overflow:visible;"/>
			</clipPath>
			<g class="st2">
				
					<linearGradient id="SVGID_6_" gradientUnits="userSpaceOnUse" x1="1057.3292" y1="956.28" x2="-299.9889" y2="364.7477" gradientTransform="matrix(1 0 0 -1 0 502)">
					<stop  offset="0" style="stop-color:#7D7D7D;stop-opacity:0"/>
					<stop  offset="0.5001" style="stop-color:#525050;stop-opacity:0.3501"/>
					<stop  offset="1" style="stop-color:#2B2828;stop-opacity:0.7"/>
				</linearGradient>
				<path class="st3" d="M-34-191.9v355.8c49.2,7,100.1,4.3,148.8-6c82-17.5,158.5-55.6,228.8-101.2C441.5-7,532.1-87.1,644-120.6
					c54.7-16.4,113.1-21,165.4-44c15.7-6.9,31-16.2,44.6-27.4L-34-191.9z"/>
			</g>
		</g>
		<g>
			<defs>
				<rect id="SVGID_7_" x="-1.6" width="1282.8" height="501.8"/>
			</defs>
			<clipPath id="SVGID_8_">
				<use xlink:href="#SVGID_7_"  style="overflow:visible;"/>
			</clipPath>
			<g class="st4">
				
					<linearGradient id="SVGID_9_" gradientUnits="userSpaceOnUse" x1="861.0226" y1="897.7438" x2="-106.827" y2="510.563" gradientTransform="matrix(1 0 0 -1 0 502)">
					<stop  offset="0" style="stop-color:#7D7D7D;stop-opacity:0"/>
					<stop  offset="0.3613" style="stop-color:#818181;stop-opacity:0.3613"/>
					<stop  offset="0.686" style="stop-color:#8B8B8B;stop-opacity:0.686"/>
					<stop  offset="0.9965" style="stop-color:#9E9E9E;stop-opacity:0.9965"/>
					<stop  offset="1" style="stop-color:#9E9E9E"/>
				</linearGradient>
				<path class="st5" d="M-34-226.4V-1.3c16.3,15.9,35.3,29.1,55.8,38.8c53.4,25.2,115.5,28.3,173.3,16s111.6-39.1,161.1-71.3
					C425.2-62.6,489-119,567.7-142.6c38.5-11.5,79.6-14.8,116.4-31c24.5-10.7,47.4-29.7,59.2-52.9L-34-226.4z"/>
			</g>
		</g>
		<g>
			<defs>
				<rect id="SVGID_10_" x="-1.6" width="1282.8" height="501.8"/>
			</defs>
			<clipPath id="SVGID_11_">
				<use xlink:href="#SVGID_10_"  style="overflow:visible;"/>
			</clipPath>
			<g class="st6">
				
					<linearGradient id="SVGID_12_" gradientUnits="userSpaceOnUse" x1="1741.6283" y1="3805.7202" x2="767.1656" y2="2092.6399" gradientTransform="matrix(-1 0 0 1 2104.7573 -2260.6274)">
					<stop  offset="0" style="stop-color:#7D7D7D;stop-opacity:0"/>
					<stop  offset="0.3613" style="stop-color:#818181;stop-opacity:0.3613"/>
					<stop  offset="0.686" style="stop-color:#8B8B8B;stop-opacity:0.686"/>
					<stop  offset="0.9965" style="stop-color:#9E9E9E;stop-opacity:0.9965"/>
					<stop  offset="1" style="stop-color:#9E9E9E"/>
				</linearGradient>
				<path class="st7" d="M1441.8,83.5c-23.4,2.2-46.7,5.8-69.6,10.7c-109.2,23.2-210.9,74-304.6,134.8
					c-130.4,84.6-251,191.3-399.9,235.9c-72.9,21.8-150.5,28-220.2,58.6c-0.5,0.2-1.1,0.5-1.6,0.7h995.9V83.5z"/>
			</g>
		</g>
		<g>
			<defs>
				<rect id="SVGID_13_" x="-1.6" width="1282.8" height="501.8"/>
			</defs>
			<clipPath id="SVGID_14_">
				<use xlink:href="#SVGID_13_"  style="overflow:visible;"/>
			</clipPath>
			<g class="st8">
				
					<linearGradient id="SVGID_15_" gradientUnits="userSpaceOnUse" x1="1627.4668" y1="3678.2349" x2="800.375" y2="2224.2288" gradientTransform="matrix(-1 0 0 1 2104.7573 -2260.6274)">
					<stop  offset="0" style="stop-color:#7D7D7D;stop-opacity:0"/>
					<stop  offset="0.5001" style="stop-color:#525050;stop-opacity:0.3501"/>
					<stop  offset="1" style="stop-color:#2B2828;stop-opacity:0.7"/>
				</linearGradient>
				<path class="st9" d="M1441.8,156.5c-47.7-4-96.4-0.4-143.3,9.6c-92.7,19.7-179,62.8-258.5,114.4
					c-110.7,71.8-213,162.3-339.4,200.2c-56.5,16.9-116.3,22.8-171.3,43.4h912.5V156.5z"/>
			</g>
		</g>
		<g>
			<defs>
				
					<rect id="SVGID_16_" x="381.3" y="283" transform="matrix(0.4142 -0.9102 0.9102 0.4142 113.1587 1243.5819)" width="1282.8" height="501.8"/>
			</defs>
			<clipPath id="SVGID_17_">
				<use xlink:href="#SVGID_16_"  style="overflow:visible;"/>
			</clipPath>
			
				<ellipse transform="matrix(0.7071 -0.7071 0.7071 0.7071 240.74 770.9999)" class="st10" cx="1051" cy="94.9" rx="49.7" ry="49.7"/>
		</g>
		<g>
			<defs>
				
					<rect id="SVGID_18_" x="2.5" y="13.9" transform="matrix(0.9996 -2.700720e-02 2.700720e-02 0.9996 -6.9169 17.4863)" width="1282.8" height="501.8"/>
			</defs>
			<clipPath id="SVGID_19_">
				<use xlink:href="#SVGID_18_"  style="overflow:visible;"/>
			</clipPath>
			<ellipse class="st11" cx="1157.1" cy="105.6" rx="7.5" ry="7.5"/>
		</g>
		<g>
			<defs>
				<rect id="SVGID_20_" x="-1.6" width="1282.8" height="501.8"/>
			</defs>
			<clipPath id="SVGID_21_">
				<use xlink:href="#SVGID_20_"  style="overflow:visible;"/>
			</clipPath>
			<path class="st12" d="M1143.6,418.3c0,2.1-1.7,3.7-3.7,3.7c-2.1,0-3.7-1.7-3.7-3.7c0-2.1,1.7-3.7,3.7-3.7
				C1141.9,414.6,1143.6,416.3,1143.6,418.3z"/>
		</g>
		<g>
			<defs>
				<rect id="SVGID_22_" x="-1.6" width="1282.8" height="501.8"/>
			</defs>
			<clipPath id="SVGID_23_">
				<use xlink:href="#SVGID_22_"  style="overflow:visible;"/>
			</clipPath>
			<circle class="st13" cx="873" cy="67.2" r="3.7"/>
		</g>
		<g>
			<defs>
				<rect id="SVGID_24_" x="-1.6" width="1282.8" height="501.8"/>
			</defs>
			<clipPath id="SVGID_25_">
				<use xlink:href="#SVGID_24_"  style="overflow:visible;"/>
			</clipPath>
			<line class="st14" x1="709" y1="-37.7" x2="587.8" y2="83.5"/>
		</g>
		<g>
			<defs>
				<rect id="SVGID_26_" x="-1.6" width="1282.8" height="501.8"/>
			</defs>
			<clipPath id="SVGID_27_">
				<use xlink:href="#SVGID_26_"  style="overflow:visible;"/>
			</clipPath>
			<line class="st15" x1="1185.2" y1="306.3" x2="955.4" y2="536.1"/>
		</g>
		<g>
			<defs>
				<polygon id="SVGID_28_" points="33,502.7 612.2,-618.5 967,-263.7 317.5,505.4 				"/>
			</defs>
			<clipPath id="SVGID_29_">
				<use xlink:href="#SVGID_28_"  style="overflow:visible;"/>
			</clipPath>
			<ellipse class="st16" cx="200.1" cy="498.3" rx="116.5" ry="116.5"/>
		</g>
		<g>
			<defs>
				<rect id="SVGID_30_" x="-1.6" width="1282.8" height="501.8"/>
			</defs>
			<clipPath id="SVGID_31_">
				<use xlink:href="#SVGID_30_"  style="overflow:visible;"/>
			</clipPath>
			
				<linearGradient id="SVGID_32_" gradientUnits="userSpaceOnUse" x1="1190.3175" y1="456.7583" x2="902.6451" y2="-48.9623" gradientTransform="matrix(1 0 0 -1 0 502)">
				<stop  offset="0" style="stop-color:#000000;stop-opacity:0"/>
				<stop  offset="0.1486" style="stop-color:#272727;stop-opacity:0.1486"/>
				<stop  offset="0.3013" style="stop-color:#474747;stop-opacity:0.3013"/>
				<stop  offset="0.4597" style="stop-color:#606060;stop-opacity:0.4597"/>
				<stop  offset="0.6243" style="stop-color:#727272;stop-opacity:0.6243"/>
				<stop  offset="0.7989" style="stop-color:#7D7D7D;stop-opacity:0.7989"/>
				<stop  offset="1" style="stop-color:#808080"/>
			</linearGradient>
			<path class="st17" d="M818.6,502.6c0,0,2.1-145.6,148.4-248.5s285.5-132.3,333.1-145.6"/>
		</g>
		<g>
			<defs>
				<rect id="SVGID_33_" x="-1.6" width="1282.8" height="501.8"/>
			</defs>
			<clipPath id="SVGID_34_">
				<use xlink:href="#SVGID_33_"  style="overflow:visible;"/>
			</clipPath>
			
				<linearGradient id="SVGID_35_" gradientUnits="userSpaceOnUse" x1="346.8342" y1="623.0032" x2="109.3171" y2="205.4542" gradientTransform="matrix(1 0 0 -1 0 502)">
				<stop  offset="0" style="stop-color:#000000;stop-opacity:0"/>
				<stop  offset="0.1486" style="stop-color:#272727;stop-opacity:0.1486"/>
				<stop  offset="0.3013" style="stop-color:#474747;stop-opacity:0.3013"/>
				<stop  offset="0.4597" style="stop-color:#606060;stop-opacity:0.4597"/>
				<stop  offset="0.6243" style="stop-color:#727272;stop-opacity:0.6243"/>
				<stop  offset="0.7989" style="stop-color:#7D7D7D;stop-opacity:0.7989"/>
				<stop  offset="1" style="stop-color:#808080"/>
			</linearGradient>
			<path class="st18" d="M-60.4,198.9c0,0,117.6,28,263.8-11.9S507.2-15.2,516.3-24.3"/>
		</g>
	</g>
</g>
<rect x="-1.8" y="-1.7" class="st19" width="1282.1" height="501.8"/>
</svg>
