<?xml version="1.0" encoding="utf-8"?>
<!-- Generator: Adobe Illustrator 23.1.1, SVG Export Plug-In . SVG Version: 6.00 Build 0)  -->
<svg version="1.1" id="Layer_1" focusable="false" xmlns="http://www.w3.org/2000/svg" xmlns:xlink="http://www.w3.org/1999/xlink"
	 x="0px" y="0px" viewBox="0 0 512 512" style="enable-background:new 0 0 512 512;" xml:space="preserve">
<style type="text/css">
	.st0{fill:gray;}
	.st1{fill:red;}
</style>
<g>
	<path class="st0" d="M255.9,256c-8.8,0.1-15.9,7.4-15.8,16.3c1.1,73.4-8.2,145-27.8,215.1l-1.2,4.3c-1.9,6.6,1.7,20.3,15.4,20.3
		c7,0,13.4-4.6,15.4-11.7l1.2-4.4c20.4-73.1,30.2-147.7,29-224.2C272,262.9,263.9,255.9,255.9,256z"/>
	<path class="st1" d="M256,169.9c-28.3,0.4-52.8,9.6-71.4,28.2c-18,18-27.7,41.9-27.3,67.4c0.8,50.2-3.9,100.5-14,149.4
		c-1.8,8.7,3.8,17.1,12.4,18.9c8.5,1.7,17.1-3.8,18.9-12.4c10.6-51.2,15.5-103.8,14.7-156.4c-0.3-16.8,6.1-32.5,17.9-44.3
		c18.7-18.7,42.3-18.8,48.8-18.8c37.1,0.6,66.4,30.2,67,66.1c0.8,50.4-3,100.9-11.1,150.1c-1.4,8.7,4.4,17,13.2,18.4
		c0.9,0.2,1.8,0.2,2.7,0.2c7.7,0,14.5-5.5,15.8-13.4c8.5-51.1,12.3-103.5,11.6-155.8C354.1,214.5,310.2,170.7,256,169.9z"/>
	<path class="st0" d="M135.2,147.6c-6.9-5.7-16.9-4.7-22.5,2.2C87.5,180.8,74,219.9,74.6,260c0.6,39.6-2.6,79.1-9.6,117.6
		c-1.6,8.7,4.2,17,12.9,18.6c1,0.2,1.9,0.3,2.9,0.3c7.6,0,14.3-5.4,15.7-13.1c7.3-40.5,10.7-82.2,10.1-123.8
		c-0.5-33,10.2-63.9,30.9-89.5C143.1,163.2,142,153.2,135.2,147.6z"/>
	<path class="st1" d="M252.6,0.1C182.6-1.2,118.3,24.9,70.3,73C24,119.2-0.9,180.8,0.2,246.2c0.1,7.6,0.1,15.1-0.2,22.6
		c-0.3,8.8,6.7,16.2,15.6,16.5H16c8.6,0,15.8-6.9,16-15.5c0.2-8,0.3-16,0.2-24c-0.9-56.7,20.7-110,60.8-150.2
		c41.8-41.8,98.9-64.4,159.1-63.5c74.7,1.1,144.9,38.2,187.8,99.3c5.1,7.2,15.1,9,22.3,3.9c7.3-5.1,9-15.1,3.9-22.3
		C417.3,43.5,337.5,1.3,252.6,0.1z"/>
	<path class="st1" d="M511.9,252.8c-0.3-16.5-2.2-33-5.8-49.1c-1.9-8.6-10.3-14-19.1-12.2c-8.6,1.9-14.1,10.4-12.2,19.1
		c3.1,14,4.8,28.4,5,42.7c0.1,7.7,0.2,15.3,0.1,23c-0.1,8.8,7,16,15.9,16.1h0.1c8.8,0,15.9-7.1,16-15.9
		C512,268.6,512,260.7,511.9,252.8z"/>
	<path class="st0" d="M253.9,85c-15.2-0.3-30.4,1.4-45.2,4.9c-8.6,2-13.9,10.7-11.9,19.3c2,8.6,10.8,13.9,19.3,11.9
		c12.1-2.9,25.1-4.3,37.3-4c82.8,1.2,151.1,67.6,152.4,147.9c0.6,39.6-1.3,79.6-5.8,118.7c-1,8.8,5.3,16.7,14.1,17.7
		c0.6,0.1,1.2,0.1,1.8,0.1c8,0,14.9-6,15.9-14.2c4.6-40.5,6.6-81.8,6-122.8C436.3,166.9,353.8,86.4,253.9,85z"/>
</g>
</svg>
