<?xml version="1.0" encoding="utf-8"?>
<!-- Generator: Adobe Illustrator 23.1.1, SVG Export Plug-In . SVG Version: 6.00 Build 0)  -->
<svg version="1.1" id="Layer_1" focusable="false" xmlns="http://www.w3.org/2000/svg" xmlns:xlink="http://www.w3.org/1999/xlink"
	 x="0px" y="0px" viewBox="0 0 512 512" style="enable-background:new 0 0 512 512;" xml:space="preserve">
<style type="text/css">
	.st0{fill:gray;}
	.st1{fill:red;}
</style>
<g>
	<path class="st0" d="M497.2,366.7l-99.7-42.9l99.7-42.9c8.4-3.6,12.2-13.2,8.6-21.5c-3.6-8.3-13.3-12.1-21.7-8.5l-225.3,96.9
		c-1.8,0.8-3.7,0.8-5.5,0l-208-89.4l193.4-83.2c8.4-3.6,12.2-13.2,8.6-21.5s-13.3-12.1-21.7-8.5L14.8,235.8
		C5.8,239.7,0,248.5,0,258.4c0,9.9,5.8,18.7,14.8,22.6l99.7,42.9l-99.7,42.9C5.8,370.5,0,379.4,0,389.3c0,9.9,5.8,18.7,14.8,22.6
		l225.3,96.8c5.1,2.2,10.5,3.3,15.9,3.3c5.4,0,10.8-1.1,15.9-3.3l225.3-96.8c9-3.9,14.8-12.7,14.8-22.6S506.2,370.6,497.2,366.7z
		 M258.7,478.7c-1.8,0.8-3.7,0.8-5.5,0l-208-89.4L156,341.7l84.1,36.1c5.1,2.2,10.5,3.3,15.9,3.3c5.4,0,10.8-1.1,15.9-3.3l84.1-36.2
		l110.8,47.6L258.7,478.7z"/>
	<path class="st1" d="M504,96h-88V8c0-4.4-3.6-8-8-8h-16c-4.4,0-8,3.6-8,8v88h-88c-4.4,0-8,3.6-8,8v16c0,4.4,3.6,8,8,8h88v88
		c0,4.4,3.6,8,8,8h16c4.4,0,8-3.6,8-8v-88h88c4.4,0,8-3.6,8-8v-16C512,99.6,508.4,96,504,96z"/>
</g>
</svg>
