<?xml version="1.0" encoding="utf-8"?>
<!-- Generator: Adobe Illustrator 23.1.1, SVG Export Plug-In . SVG Version: 6.00 Build 0)  -->
<svg version="1.1" id="Layer_1" focusable="false" xmlns="http://www.w3.org/2000/svg" xmlns:xlink="http://www.w3.org/1999/xlink"
	 x="0px" y="0px" viewBox="0 0 640 512" style="enable-background:new 0 0 640 512;" xml:space="preserve">
<style type="text/css">
	.st0{fill:gray;}
	.st1{fill:#C1272D;}
</style>
<g>
	<path class="st0" d="M96,32h384v64h32V32c0-17.7-14.3-32-32-32H96C78.3,0,64,14.3,64,32v256H16c-8.8,0-16,7.2-16,16v16
		c0.1,35.3,28.6,63.9,63.9,64H352v-32H63.9C46.3,352,32,337.6,32,320h320v-32H96V32z"/>
	<path class="st1" d="M608,128H416c-17.7,0-32,14.3-32,32v320c0,17.7,14.3,32,32,32h192c17.7,0,32-14.3,32-32V160
		C640,142.3,625.7,128,608,128z M608,480H416V160h192V480z"/>
</g>
</svg>
